<?xml version="1.0" encoding="utf-8"?>
<svg version="1.1" xmlns:xlink="http://www.w3.org/1999/xlink" width="12px" height="12px" viewBox="433 1469  12 12" xmlns="http://www.w3.org/2000/svg">
  <path d="M 439 1469  C 442.36 1469  445 1471.64  445 1475  C 445 1478.36  442.36 1481  439 1481  C 435.64 1481  433 1478.36  433 1475  C 433 1471.64  435.64 1469  439 1469  Z " fill-rule="nonzero" fill="#f0f0f0" stroke="none" />
  <path d="M 439 1469.5  C 442.08 1469.5  444.5 1471.92  444.5 1475  C 444.5 1478.08  442.08 1480.5  439 1480.5  C 435.92 1480.5  433.5 1478.08  433.5 1475  C 433.5 1471.92  435.92 1469.5  439 1469.5  Z " stroke-width="1" stroke="#797979" fill="none" />
  <path d="M 439 1478  C 437.32 1478  436 1476.68  436 1475  C 436 1473.32  437.32 1472  439 1472  C 440.68 1472  442 1473.32  442 1475  C 442 1476.68  440.68 1478  439 1478  " fill-rule="nonzero" fill="#797979" stroke="none" />
</svg>