<?xml version="1.0" encoding="utf-8"?>
<svg version="1.1" xmlns:xlink="http://www.w3.org/1999/xlink" width="12px" height="12px" viewBox="1365 1573  12 12" xmlns="http://www.w3.org/2000/svg">
  <path d="M 1371 1573  C 1374.36 1573  1377 1575.64  1377 1579  C 1377 1582.36  1374.36 1585  1371 1585  C 1367.64 1585  1365 1582.36  1365 1579  C 1365 1575.64  1367.64 1573  1371 1573  Z " fill-rule="nonzero" fill="#f0f0f0" stroke="none" />
  <path d="M 1371 1573.5  C 1374.08 1573.5  1376.5 1575.92  1376.5 1579  C 1376.5 1582.08  1374.08 1584.5  1371 1584.5  C 1367.92 1584.5  1365.5 1582.08  1365.5 1579  C 1365.5 1575.92  1367.92 1573.5  1371 1573.5  Z " stroke-width="1" stroke="#797979" fill="none" />
  <path d="M 1371 1582  C 1369.32 1582  1368 1580.68  1368 1579  C 1368 1577.32  1369.32 1576  1371 1576  C 1372.68 1576  1374 1577.32  1374 1579  C 1374 1580.68  1372.68 1582  1371 1582  " fill-rule="nonzero" fill="#797979" stroke="none" />
</svg>