<?xml version="1.0" encoding="utf-8"?>
<svg version="1.1" xmlns:xlink="http://www.w3.org/1999/xlink" width="12px" height="12px" viewBox="1483 1573  12 12" xmlns="http://www.w3.org/2000/svg">
  <path d="M 1489 1573  C 1492.36 1573  1495 1575.64  1495 1579  C 1495 1582.36  1492.36 1585  1489 1585  C 1485.64 1585  1483 1582.36  1483 1579  C 1483 1575.64  1485.64 1573  1489 1573  Z " fill-rule="nonzero" fill="#ffffff" stroke="none" />
  <path d="M 1489 1573.5  C 1492.08 1573.5  1494.5 1575.92  1494.5 1579  C 1494.5 1582.08  1492.08 1584.5  1489 1584.5  C 1485.92 1584.5  1483.5 1582.08  1483.5 1579  C 1483.5 1575.92  1485.92 1573.5  1489 1573.5  Z " stroke-width="1" stroke="#797979" fill="none" />
  <path d="M 1489 1582  C 1487.32 1582  1486 1580.68  1486 1579  C 1486 1577.32  1487.32 1576  1489 1576  C 1490.68 1576  1492 1577.32  1492 1579  C 1492 1580.68  1490.68 1582  1489 1582  " fill-rule="nonzero" fill="#797979" stroke="none" />
</svg>