<?xml version="1.0" encoding="utf-8"?>
<svg version="1.1" xmlns:xlink="http://www.w3.org/1999/xlink" width="12px" height="12px" viewBox="2495 490  12 12" xmlns="http://www.w3.org/2000/svg">
  <path d="M 2501 490  C 2504.36 490  2507 492.64  2507 496  C 2507 499.36  2504.36 502  2501 502  C 2497.64 502  2495 499.36  2495 496  C 2495 492.64  2497.64 490  2501 490  Z " fill-rule="nonzero" fill="#ffffff" stroke="none" />
  <path d="M 2501 490.5  C 2504.08 490.5  2506.5 492.92  2506.5 496  C 2506.5 499.08  2504.08 501.5  2501 501.5  C 2497.92 501.5  2495.5 499.08  2495.5 496  C 2495.5 492.92  2497.92 490.5  2501 490.5  Z " stroke-width="1" stroke="#797979" fill="none" />
  <path d="M 2501 499  C 2499.32 499  2498 497.68  2498 496  C 2498 494.32  2499.32 493  2501 493  C 2502.68 493  2504 494.32  2504 496  C 2504 497.68  2502.68 499  2501 499  " fill-rule="nonzero" fill="#797979" stroke="none" />
</svg>