<?xml version="1.0" encoding="utf-8"?>
<svg version="1.1" xmlns:xlink="http://www.w3.org/1999/xlink" width="12px" height="12px" viewBox="2399 490  12 12" xmlns="http://www.w3.org/2000/svg">
  <path d="M 2405 490  C 2408.36 490  2411 492.64  2411 496  C 2411 499.36  2408.36 502  2405 502  C 2401.64 502  2399 499.36  2399 496  C 2399 492.64  2401.64 490  2405 490  Z " fill-rule="nonzero" fill="#ffffff" stroke="none" />
  <path d="M 2405 490.5  C 2408.08 490.5  2410.5 492.92  2410.5 496  C 2410.5 499.08  2408.08 501.5  2405 501.5  C 2401.92 501.5  2399.5 499.08  2399.5 496  C 2399.5 492.92  2401.92 490.5  2405 490.5  Z " stroke-width="1" stroke="#797979" fill="none" />
  <path d="M 2405 499  C 2403.32 499  2402 497.68  2402 496  C 2402 494.32  2403.32 493  2405 493  C 2406.68 493  2408 494.32  2408 496  C 2408 497.68  2406.68 499  2405 499  " fill-rule="nonzero" fill="#797979" stroke="none" />
</svg>