<?xml version="1.0" encoding="utf-8"?>
<svg version="1.1" xmlns:xlink="http://www.w3.org/1999/xlink" width="33px" height="25px" xmlns="http://www.w3.org/2000/svg">
  <g transform="matrix(1 0 0 1 -592 -188 )">
    <path d="M 20.23828125 15.33203125  C 21.9768629807692 14.0149238782051  22.8461538461538 12.4298878205128  22.8461538461538 10.5769230769231  C 22.8461538461538 8.72395833333333  21.9768629807692 7.13892227564102  20.23828125 5.82181490384615  C 18.4996995192308 4.50470753205128  16.4074519230769 3.84615384615385  13.9615384615385 3.84615384615385  C 11.515625 3.84615384615385  9.42337740384616 4.50470753205128  7.68479567307692 5.82181490384615  C 5.94621394230769 7.13892227564102  5.07692307692308 8.72395833333333  5.07692307692308 10.5769230769231  C 5.07692307692308 12.4298878205128  5.94621394230769 14.0149238782051  7.68479567307692 15.33203125  C 9.42337740384616 16.6491386217949  11.515625 17.3076923076923  13.9615384615385 17.3076923076923  C 16.4074519230769 17.3076923076923  18.4996995192308 16.6491386217949  20.23828125 15.33203125  Z M 32.2662259615385 21.7247596153846  C 32.7554086538462 22.0953525641026  33 22.5460737179487  33 23.0769230769231  C 33 23.5977564102564  32.7487980769231 24.0484775641026  32.2463942307692 24.4290865384615  C 31.7439903846154 24.8096955128205  31.1490384615385 25  30.4615384615385 25  C 29.7475961538462 25  29.1526442307692 24.8096955128205  28.6766826923077 24.4290865384615  L 21.8743990384615 19.2908653846154  C 19.5078125 20.5328525641026  16.8701923076923 21.1538461538462  13.9615384615385 21.1538461538462  C 12.0709134615385 21.1538461538462  10.2629206730769 20.8759014423077  8.53756009615384 20.3200120192308  C 6.81219951923077 19.7641225961538  5.32481971153846 19.0129206730769  4.07542067307692 18.06640625  C 2.82602163461538 17.1198918269231  1.83443509615385 15.9930889423077  1.10066105769231 14.6859975961538  C 0.366887019230769 13.37890625  0 12.0092147435897  0 10.5769230769231  C 0 9.14463141025641  0.366887019230769 7.77493990384615  1.10066105769231 6.46784855769231  C 1.83443509615385 5.16075721153846  2.82602163461538 4.03395432692308  4.07542067307692 3.08743990384615  C 5.32481971153846 2.14092548076923  6.81219951923077 1.38972355769231  8.53756009615384 0.833834134615385  C 10.2629206730769 0.277944711538461  12.0709134615385 0  13.9615384615385 0  C 15.8521634615385 0  17.66015625 0.277944711538461  19.3855168269231 0.833834134615385  C 21.1108774038462 1.38972355769231  22.5982572115385 2.14092548076923  23.84765625 3.08743990384615  C 25.0970552884615 4.03395432692308  26.0886418269231 5.16075721153846  26.8224158653846 6.46784855769231  C 27.5561899038462 7.77493990384615  27.9230769230769 9.14463141025641  27.9230769230769 10.5769230769231  C 27.9230769230769 12.7804487179487  27.1033653846154 14.7786458333333  25.4639423076923 16.5715144230769  L 32.2662259615385 21.7247596153846  Z " fill-rule="nonzero" fill="#000000" stroke="none" transform="matrix(1 0 0 1 592 188 )" />
  </g>
</svg>