<?xml version="1.0" encoding="utf-8"?>
<svg version="1.1" xmlns:xlink="http://www.w3.org/1999/xlink" width="38px" height="35px" xmlns="http://www.w3.org/2000/svg">
  <g transform="matrix(1 0 0 1 -910 -2955 )">
    <path d="M 910 2955  L 948 2955  L 948 2990  L 910 2990  L 910 2955  " fill-rule="nonzero" fill="#cccccc" stroke="none" />
    <path d="M 912 2957  L 946 2957  L 946 2988  L 912 2988  L 912 2957  " fill-rule="nonzero" fill="#ffffff" stroke="none" />
    <path d="M 932.385 2965.5  C 930.915 2965.5  929.76 2964.345  929.76 2962.875  C 929.76 2961.405  930.915 2960.25  932.385 2960.25  C 933.855 2960.25  935.01 2961.405  935.01 2962.875  C 935.01 2964.345  933.855 2965.5  932.385 2965.5  " fill-rule="nonzero" fill="#cccccc" stroke="none" />
    <path d="M 913 2987  L 913 2971.05  L 921 2963.8  L 932.2 2970.97368421053  L 938.6 2968.15  L 945 2970.97368421053  L 945 2987  L 913 2987  " fill-rule="nonzero" fill="#169bd5" stroke="none" />
  </g>
</svg>