<?xml version="1.0" encoding="utf-8"?>
<svg version="1.1" xmlns:xlink="http://www.w3.org/1999/xlink" width="30px" height="25px" xmlns="http://www.w3.org/2000/svg">
  <g transform="matrix(1 0 0 1 -1085 -691 )">
    <path d="M 28.9903846153846 8.96345305608066  C 29.6634615384615 9.05797101449276  30 9.29951690821256  30 9.68809073724008  C 30 9.91913463558076  29.84375 10.1711825246797  29.53125 10.4442344045369  L 22.9867788461538 16.0207939508507  L 24.5372596153846 23.8972904851922  C 24.5492788461538 23.970804452846  24.5552884615385 24.0758244066373  24.5552884615385 24.2123503465658  C 24.5552884615385 24.4328922495274  24.4921875 24.6193026675068  24.3659855769231 24.7715816005041  C 24.2397836538462 24.9238605335014  24.0564903846154 25  23.8161057692308 25  C 23.5877403846154 25  23.3473557692308 24.9369880277253  23.0949519230769 24.8109640831758  L 15 21.0932577189666  L 6.90504807692308 24.8109640831758  C 6.640625 24.9369880277253  6.40024038461538 25  6.18389423076923 25  C 5.93149038461538 25  5.7421875 24.9238605335014  5.61598557692308 24.7715816005041  C 5.48978365384615 24.6193026675068  5.42668269230769 24.4328922495274  5.42668269230769 24.2123503465658  C 5.42668269230769 24.1493383742911  5.43870192307692 24.0443184204999  5.46274038461538 23.8972904851922  L 7.01322115384615 16.0207939508507  L 0.450721153846154 10.4442344045369  C 0.150240384615385 10.1606805293006  0 9.90863264020164  0 9.68809073724008  C 0 9.29951690821256  0.336538461538462 9.05797101449276  1.00961538461538 8.96345305608066  L 10.0600961538462 7.81348456206679  L 14.1165865384615 0.645872715816004  C 14.3449519230769 0.215290905272  14.6394230769231 0  15 0  C 15.3605769230769 0  15.6550480769231 0.215290905272  15.8834134615385 0.645872715816004  L 19.9399038461538 7.81348456206679  L 28.9903846153846 8.96345305608066  Z " fill-rule="nonzero" fill="#000000" stroke="none" transform="matrix(1 0 0 1 1085 691 )" />
  </g>
</svg>