<?xml version="1.0" encoding="utf-8"?>
<svg version="1.1" xmlns:xlink="http://www.w3.org/1999/xlink" width="12px" height="12px" viewBox="558 254  12 12" xmlns="http://www.w3.org/2000/svg">
  <path d="M 564 254  C 567.36 254  570 256.64  570 260  C 570 263.36  567.36 266  564 266  C 560.64 266  558 263.36  558 260  C 558 256.64  560.64 254  564 254  Z " fill-rule="nonzero" fill="#f0f0f0" stroke="none" />
  <path d="M 564 254.5  C 567.08 254.5  569.5 256.92  569.5 260  C 569.5 263.08  567.08 265.5  564 265.5  C 560.92 265.5  558.5 263.08  558.5 260  C 558.5 256.92  560.92 254.5  564 254.5  Z " stroke-width="1" stroke="#797979" fill="none" />
  <path d="M 564 263  C 562.32 263  561 261.68  561 260  C 561 258.32  562.32 257  564 257  C 565.68 257  567 258.32  567 260  C 567 261.68  565.68 263  564 263  " fill-rule="nonzero" fill="#797979" stroke="none" />
</svg>