<?xml version="1.0" encoding="utf-8"?>
<svg version="1.1" xmlns:xlink="http://www.w3.org/1999/xlink" width="12px" height="12px" viewBox="740 255  12 12" xmlns="http://www.w3.org/2000/svg">
  <path d="M 746 255  C 749.36 255  752 257.64  752 261  C 752 264.36  749.36 267  746 267  C 742.64 267  740 264.36  740 261  C 740 257.64  742.64 255  746 255  Z " fill-rule="nonzero" fill="#ffffff" stroke="none" />
  <path d="M 746 255.5  C 749.08 255.5  751.5 257.92  751.5 261  C 751.5 264.08  749.08 266.5  746 266.5  C 742.92 266.5  740.5 264.08  740.5 261  C 740.5 257.92  742.92 255.5  746 255.5  Z " stroke-width="1" stroke="#797979" fill="none" />
  <path d="M 746 264  C 744.32 264  743 262.68  743 261  C 743 259.32  744.32 258  746 258  C 747.68 258  749 259.32  749 261  C 749 262.68  747.68 264  746 264  " fill-rule="nonzero" fill="#797979" stroke="none" />
</svg>