<?xml version="1.0" encoding="utf-8"?>
<svg version="1.1" xmlns:xlink="http://www.w3.org/1999/xlink" width="21px" height="20px" xmlns="http://www.w3.org/2000/svg">
  <g transform="matrix(1 0 0 1 -1538 -1469 )">
    <path d="M 20.6206451612903 2.76094276094276  C 20.8735483870968 3.07519640852974  21 3.45679012345679  21 3.90572390572391  C 21 4.35465768799102  20.8735483870968 4.73625140291807  20.6206451612903 5.05050505050505  L 10.8116129032258 17.2390572390572  L 8.96903225806452 19.5286195286195  C 8.71612903225807 19.8428731762065  8.40903225806452 20  8.04774193548387 20  C 7.68645161290323 20  7.37935483870968 19.8428731762065  7.12645161290323 19.5286195286195  L 5.28387096774193 17.2390572390572  L 0.379354838709677 11.1447811447811  C 0.126451612903226 10.8305274971942  0 10.4489337822671  0 10  C 0 9.55106621773288  0.126451612903226 9.16947250280584  0.379354838709677 8.85521885521886  L 2.22193548387097 6.56565656565657  C 2.47483870967742 6.25140291806958  2.78193548387097 6.09427609427609  3.14322580645161 6.09427609427609  C 3.50451612903226 6.09427609427609  3.81161290322581 6.25140291806958  4.06451612903226 6.56565656565657  L 8.04774193548387 11.5319865319865  L 16.9354838709677 0.471380471380471  C 17.1883870967742 0.15712682379349  17.4954838709677 0  17.8567741935484 0  C 18.218064516129 0  18.5251612903226 0.15712682379349  18.778064516129 0.471380471380471  L 20.6206451612903 2.76094276094276  Z " fill-rule="nonzero" fill="#000000" stroke="none" transform="matrix(1 0 0 1 1538 1469 )" />
  </g>
</svg>