<?xml version="1.0" encoding="utf-8"?>
<svg version="1.1" xmlns:xlink="http://www.w3.org/1999/xlink" width="37px" height="21px" xmlns="http://www.w3.org/2000/svg">
  <g transform="matrix(1 0 0 1 -109 -16 )">
    <path d="M 20.080810546875 13.756640625  C 20.568603515625 12.723046875  20.8125 11.6375  20.8125 10.5  C 20.8125 9.3625  20.568603515625 8.276953125  20.080810546875 7.243359375  C 19.593017578125 6.209765625  18.93359375 5.315625  18.1025390625 4.5609375  C 17.271484375 3.80625  16.286865234375 3.207421875  15.148681640625 2.764453125  C 14.010498046875 2.321484375  12.8151041666667 2.1  11.5625 2.1  C 10.3098958333333 2.1  9.114501953125 2.321484375  7.976318359375 2.764453125  C 6.838134765625 3.207421875  5.853515625 3.80625  5.0224609375 4.5609375  C 4.19140625 5.315625  3.531982421875 6.209765625  3.044189453125 7.243359375  C 2.556396484375 8.276953125  2.3125 9.3625  2.3125 10.5  C 2.3125 11.6375  2.556396484375 12.723046875  3.044189453125 13.756640625  C 3.531982421875 14.790234375  4.19140625 15.684375  5.0224609375 16.4390625  C 5.853515625 17.19375  6.838134765625 17.792578125  7.976318359375 18.235546875  C 9.114501953125 18.678515625  10.3098958333333 18.9  11.5625 18.9  C 12.8151041666667 18.9  14.010498046875 18.678515625  15.148681640625 18.235546875  C 16.286865234375 17.792578125  17.271484375 17.19375  18.1025390625 16.4390625  C 18.93359375 15.684375  19.593017578125 14.790234375  20.080810546875 13.756640625  Z M 33.955810546875 13.756640625  C 34.443603515625 12.723046875  34.6875 11.6375  34.6875 10.5  C 34.6875 9.3625  34.443603515625 8.276953125  33.955810546875 7.243359375  C 33.468017578125 6.209765625  32.80859375 5.315625  31.9775390625 4.5609375  C 31.146484375 3.80625  30.161865234375 3.207421875  29.023681640625 2.764453125  C 27.885498046875 2.321484375  26.6901041666667 2.1  25.4375 2.1  L 18.4638671875 2.1  C 19.8971354166667 3.084375  21.0323079427083 4.309375  21.869384765625 5.775  C 22.7064615885417 7.240625  23.125 8.815625  23.125 10.5  C 23.125 12.184375  22.7064615885417 13.759375  21.869384765625 15.225  C 21.0323079427083 16.690625  19.8971354166667 17.915625  18.4638671875 18.9  L 25.4375 18.9  C 26.6901041666667 18.9  27.885498046875 18.678515625  29.023681640625 18.235546875  C 30.161865234375 17.792578125  31.146484375 17.19375  31.9775390625 16.4390625  C 32.80859375 15.684375  33.468017578125 14.790234375  33.955810546875 13.756640625  Z M 36.07861328125 6.423046875  C 36.69287109375 7.719140625  37 9.078125  37 10.5  C 37 11.921875  36.69287109375 13.280859375  36.07861328125 14.576953125  C 35.46435546875 15.873046875  34.642333984375 16.988671875  33.612548828125 17.923828125  C 32.582763671875 18.858984375  31.354248046875 19.60546875  29.927001953125 20.16328125  C 28.499755859375 20.72109375  27.0032552083333 21  25.4375 21  L 11.5625 21  C 9.99674479166667 21  8.500244140625 20.72109375  7.072998046875 20.16328125  C 5.645751953125 19.60546875  4.417236328125 18.858984375  3.387451171875 17.923828125  C 2.357666015625 16.988671875  1.53564453125 15.873046875  0.92138671875 14.576953125  C 0.30712890625 13.280859375  0 11.921875  0 10.5  C 0 9.078125  0.30712890625 7.719140625  0.92138671875 6.423046875  C 1.53564453125 5.126953125  2.357666015625 4.011328125  3.387451171875 3.076171875  C 4.417236328125 2.141015625  5.645751953125 1.39453125  7.072998046875 0.836718749999999  C 8.500244140625 0.27890625  9.99674479166667 0  11.5625 0  L 25.4375 0  C 27.0032552083333 0  28.499755859375 0.27890625  29.927001953125 0.836718749999999  C 31.354248046875 1.39453125  32.582763671875 2.141015625  33.612548828125 3.076171875  C 34.642333984375 4.011328125  35.46435546875 5.126953125  36.07861328125 6.423046875  Z " fill-rule="nonzero" fill="#000000" stroke="none" transform="matrix(1 0 0 1 109 16 )" />
  </g>
</svg>