<?xml version="1.0" encoding="utf-8"?>
<svg version="1.1" xmlns:xlink="http://www.w3.org/1999/xlink" width="23px" height="22px" xmlns="http://www.w3.org/2000/svg">
  <g transform="matrix(1 0 0 1 -728 -213 )">
    <path d="M 8.21661931818182 18.2044270833333  C 8.31463068181818 18.1184895833333  8.36363636363636 18.0086805555556  8.36363636363636 17.875  L 8.36363636363636 7.79166666666667  C 8.36363636363636 7.65798611111111  8.31463068181818 7.54817708333333  8.21661931818182 7.46223958333333  C 8.11860795454546 7.37630208333333  7.99337121212121 7.33333333333333  7.84090909090909 7.33333333333333  L 6.79545454545455 7.33333333333333  C 6.64299242424243 7.33333333333333  6.51775568181818 7.37630208333333  6.41974431818182 7.46223958333333  C 6.32173295454545 7.54817708333333  6.27272727272727 7.65798611111111  6.27272727272727 7.79166666666667  L 6.27272727272727 17.875  C 6.27272727272727 18.0086805555556  6.32173295454545 18.1184895833333  6.41974431818182 18.2044270833333  C 6.51775568181818 18.2903645833333  6.64299242424243 18.3333333333333  6.79545454545455 18.3333333333333  L 7.84090909090909 18.3333333333333  C 7.99337121212121 18.3333333333333  8.11860795454546 18.2903645833333  8.21661931818182 18.2044270833333  Z M 12.3984375 18.2044270833333  C 12.4964488636364 18.1184895833333  12.5454545454545 18.0086805555556  12.5454545454545 17.875  L 12.5454545454545 7.79166666666667  C 12.5454545454545 7.65798611111111  12.4964488636364 7.54817708333333  12.3984375 7.46223958333333  C 12.3004261363636 7.37630208333333  12.1751893939394 7.33333333333333  12.0227272727273 7.33333333333333  L 10.9772727272727 7.33333333333333  C 10.8248106060606 7.33333333333333  10.6995738636364 7.37630208333333  10.6015625 7.46223958333333  C 10.5035511363636 7.54817708333333  10.4545454545455 7.65798611111111  10.4545454545455 7.79166666666667  L 10.4545454545455 17.875  C 10.4545454545455 18.0086805555556  10.5035511363636 18.1184895833333  10.6015625 18.2044270833333  C 10.6995738636364 18.2903645833333  10.8248106060606 18.3333333333333  10.9772727272727 18.3333333333333  L 12.0227272727273 18.3333333333333  C 12.1751893939394 18.3333333333333  12.3004261363636 18.2903645833333  12.3984375 18.2044270833333  Z M 16.5802556818182 18.2044270833333  C 16.6782670454545 18.1184895833333  16.7272727272727 18.0086805555556  16.7272727272727 17.875  L 16.7272727272727 7.79166666666667  C 16.7272727272727 7.65798611111111  16.6782670454545 7.54817708333333  16.5802556818182 7.46223958333333  C 16.4822443181818 7.37630208333333  16.3570075757576 7.33333333333333  16.2045454545455 7.33333333333333  L 15.1590909090909 7.33333333333333  C 15.0066287878788 7.33333333333333  14.8813920454545 7.37630208333333  14.7833806818182 7.46223958333333  C 14.6853693181818 7.54817708333333  14.6363636363636 7.65798611111111  14.6363636363636 7.79166666666667  L 14.6363636363636 17.875  C 14.6363636363636 18.0086805555556  14.6853693181818 18.1184895833333  14.7833806818182 18.2044270833333  C 14.8813920454545 18.2903645833333  15.0066287878788 18.3333333333333  15.1590909090909 18.3333333333333  L 16.2045454545455 18.3333333333333  C 16.3570075757576 18.3333333333333  16.4822443181818 18.2903645833333  16.5802556818182 18.2044270833333  Z M 8.64133522727273 1.99088541666667  L 7.84090909090909 3.66666666666667  L 15.1590909090909 3.66666666666667  L 14.375 1.99088541666667  C 14.2987689393939 1.90494791666667  14.2062026515152 1.85243055555555  14.0973011363636 1.83333333333333  L 8.91903409090909 1.83333333333333  C 8.81013257575758 1.85243055555555  8.71756628787879 1.90494791666667  8.64133522727273 1.99088541666667  Z M 22.8529829545455 3.79557291666667  C 22.9509943181818 3.88151041666667  23 3.99131944444444  23 4.125  L 23 5.04166666666667  C 23 5.17534722222222  22.9509943181818 5.28515625  22.8529829545455 5.37109375  C 22.7549715909091 5.45703125  22.6297348484849 5.5  22.4772727272727 5.5  L 21 5.5  L 21 19.078125  C 20.9090909090909 19.8706597222222  20.6531723484849 20.5557725694444  20.1413352272727 21.1334635416667  C 19.6294981060606 21.7111545138889  19.0142045454545 22  18.2954545454545 22  L 4.70454545454546 22  C 3.98579545454546 22  3.37050189393939 21.720703125  2.85866477272727 21.162109375  C 2.34682765151515 20.603515625  2.09090909090909 19.9279513888889  2 19.1354166666667  L 2 5.5  L 0.522727272727273 5.5  C 0.370265151515151 5.5  0.245028409090909 5.45703125  0.147017045454545 5.37109375  C 0.0490056818181818 5.28515625  0 5.17534722222222  0 5.04166666666667  L 0 4.125  C 0 3.99131944444444  0.0490056818181818 3.88151041666667  0.147017045454545 3.79557291666667  C 0.245028409090909 3.70963541666667  0.370265151515151 3.66666666666667  0.522727272727273 3.66666666666667  L 5.5703125 3.66666666666667  L 6.71377840909091 1.27473958333333  C 6.87713068181818 0.92144097222222  7.17116477272727 0.62065972222222  7.59588068181818 0.372395833333334  C 8.02059659090909 0.124131944444443  8.45075757575758 0  8.88636363636364 0  L 14.1136363636364 0  C 14.5492424242424 0  14.9794034090909 0.124131944444443  15.4041193181818 0.372395833333334  C 15.8288352272727 0.62065972222222  16.1228693181818 0.92144097222222  16.2862215909091 1.27473958333333  L 17.4296875 3.66666666666667  L 22.4772727272727 3.66666666666667  C 22.6297348484849 3.66666666666667  22.7549715909091 3.70963541666667  22.8529829545455 3.79557291666667  Z " fill-rule="nonzero" fill="#000000" stroke="none" transform="matrix(1 0 0 1 728 213 )" />
  </g>
</svg>