<?xml version="1.0" encoding="utf-8"?>
<svg version="1.1" xmlns:xlink="http://www.w3.org/1999/xlink" width="88px" height="88px" xmlns="http://www.w3.org/2000/svg">
  <g transform="matrix(1 0 0 1 -503 -627 )">
    <path d="M 547 627  C 571.64 627  591 646.36  591 671  C 591 695.64  571.64 715  547 715  C 522.36 715  503 695.64  503 671  C 503 646.36  522.36 627  547 627  Z " fill-rule="nonzero" fill="#f7f8fa" stroke="none" />
    <path d="M 547 627.5  C 571.36 627.5  590.5 646.64  590.5 671  C 590.5 695.36  571.36 714.5  547 714.5  C 522.64 714.5  503.5 695.36  503.5 671  C 503.5 646.64  522.64 627.5  547 627.5  Z " stroke-width="1" stroke="#f7f8fa" fill="none" />
  </g>
</svg>