<?xml version="1.0" encoding="utf-8"?>
<svg version="1.1" xmlns:xlink="http://www.w3.org/1999/xlink" width="12px" height="12px" viewBox="1024 374  12 12" xmlns="http://www.w3.org/2000/svg">
  <path d="M 1030 374  C 1033.36 374  1036 376.64  1036 380  C 1036 383.36  1033.36 386  1030 386  C 1026.64 386  1024 383.36  1024 380  C 1024 376.64  1026.64 374  1030 374  Z " fill-rule="nonzero" fill="#f0f0f0" stroke="none" />
  <path d="M 1030 374.5  C 1033.08 374.5  1035.5 376.92  1035.5 380  C 1035.5 383.08  1033.08 385.5  1030 385.5  C 1026.92 385.5  1024.5 383.08  1024.5 380  C 1024.5 376.92  1026.92 374.5  1030 374.5  Z " stroke-width="1" stroke="#797979" fill="none" />
  <path d="M 1030 383  C 1028.32 383  1027 381.68  1027 380  C 1027 378.32  1028.32 377  1030 377  C 1031.68 377  1033 378.32  1033 380  C 1033 381.68  1031.68 383  1030 383  " fill-rule="nonzero" fill="#797979" stroke="none" />
</svg>