<?xml version="1.0" encoding="utf-8"?>
<svg version="1.1" xmlns:xlink="http://www.w3.org/1999/xlink" width="12px" height="12px" viewBox="434 365  12 12" xmlns="http://www.w3.org/2000/svg">
  <path d="M 440 365  C 443.36 365  446 367.64  446 371  C 446 374.36  443.36 377  440 377  C 436.64 377  434 374.36  434 371  C 434 367.64  436.64 365  440 365  Z " fill-rule="nonzero" fill="#f0f0f0" stroke="none" />
  <path d="M 440 365.5  C 443.08 365.5  445.5 367.92  445.5 371  C 445.5 374.08  443.08 376.5  440 376.5  C 436.92 376.5  434.5 374.08  434.5 371  C 434.5 367.92  436.92 365.5  440 365.5  Z " stroke-width="1" stroke="#797979" fill="none" />
  <path d="M 440 374  C 438.32 374  437 372.68  437 371  C 437 369.32  438.32 368  440 368  C 441.68 368  443 369.32  443 371  C 443 372.68  441.68 374  440 374  " fill-rule="nonzero" fill="#797979" stroke="none" />
</svg>