<?xml version="1.0" encoding="utf-8"?>
<svg version="1.1" xmlns:xlink="http://www.w3.org/1999/xlink" width="12px" height="12px" viewBox="1127 374  12 12" xmlns="http://www.w3.org/2000/svg">
  <path d="M 1133 374  C 1136.36 374  1139 376.64  1139 380  C 1139 383.36  1136.36 386  1133 386  C 1129.64 386  1127 383.36  1127 380  C 1127 376.64  1129.64 374  1133 374  Z " fill-rule="nonzero" fill="#ffffff" stroke="none" />
  <path d="M 1133 374.5  C 1136.08 374.5  1138.5 376.92  1138.5 380  C 1138.5 383.08  1136.08 385.5  1133 385.5  C 1129.92 385.5  1127.5 383.08  1127.5 380  C 1127.5 376.92  1129.92 374.5  1133 374.5  Z " stroke-width="1" stroke="#797979" fill="none" />
  <path d="M 1133 383  C 1131.32 383  1130 381.68  1130 380  C 1130 378.32  1131.32 377  1133 377  C 1134.68 377  1136 378.32  1136 380  C 1136 381.68  1134.68 383  1133 383  " fill-rule="nonzero" fill="#797979" stroke="none" />
</svg>