<?xml version="1.0" encoding="utf-8"?>
<svg version="1.1" xmlns:xlink="http://www.w3.org/1999/xlink" width="12px" height="12px" viewBox="2168 612  12 12" xmlns="http://www.w3.org/2000/svg">
  <path d="M 2174 612  C 2177.36 612  2180 614.64  2180 618  C 2180 621.36  2177.36 624  2174 624  C 2170.64 624  2168 621.36  2168 618  C 2168 614.64  2170.64 612  2174 612  Z " fill-rule="nonzero" fill="#ffffff" stroke="none" />
  <path d="M 2174 612.5  C 2177.08 612.5  2179.5 614.92  2179.5 618  C 2179.5 621.08  2177.08 623.5  2174 623.5  C 2170.92 623.5  2168.5 621.08  2168.5 618  C 2168.5 614.92  2170.92 612.5  2174 612.5  Z " stroke-width="1" stroke="#797979" fill="none" />
  <path d="M 2174 621  C 2172.32 621  2171 619.68  2171 618  C 2171 616.32  2172.32 615  2174 615  C 2175.68 615  2177 616.32  2177 618  C 2177 619.68  2175.68 621  2174 621  " fill-rule="nonzero" fill="#797979" stroke="none" />
</svg>