<?xml version="1.0" encoding="utf-8"?>
<svg version="1.1" xmlns:xlink="http://www.w3.org/1999/xlink" width="12px" height="12px" viewBox="734 2332  12 12" xmlns="http://www.w3.org/2000/svg">
  <path d="M 740 2332  C 743.36 2332  746 2334.64  746 2338  C 746 2341.36  743.36 2344  740 2344  C 736.64 2344  734 2341.36  734 2338  C 734 2334.64  736.64 2332  740 2332  Z " fill-rule="nonzero" fill="#f0f0f0" stroke="none" />
  <path d="M 740 2332.5  C 743.08 2332.5  745.5 2334.92  745.5 2338  C 745.5 2341.08  743.08 2343.5  740 2343.5  C 736.92 2343.5  734.5 2341.08  734.5 2338  C 734.5 2334.92  736.92 2332.5  740 2332.5  Z " stroke-width="1" stroke="#797979" fill="none" />
  <path d="M 740 2341  C 738.32 2341  737 2339.68  737 2338  C 737 2336.32  738.32 2335  740 2335  C 741.68 2335  743 2336.32  743 2338  C 743 2339.68  741.68 2341  740 2341  " fill-rule="nonzero" fill="#797979" stroke="none" />
</svg>