<?xml version="1.0" encoding="utf-8"?>
<svg version="1.1" xmlns:xlink="http://www.w3.org/1999/xlink" width="98px" height="25px" xmlns="http://www.w3.org/2000/svg">
  <defs>
    <mask fill="white" id="clip177">
      <path d="M 0 20  L 0 5  C 0 2.19999999999999  4.58723404255281 0  10.4255319148936 0  L 24.7522306108435 0  L 87.5744680851064 0  C 93.4127659574472 0  98 2.19999999999999  98 5  L 98 20  C 98 22.8  93.4127659574472 25  87.5744680851064 25  L 25.5267569310127 25  L 10.4255319148936 25  C 4.58723404255281 25  0 22.8  0 20  Z " fill-rule="evenodd" />
    </mask>
  </defs>
  <g transform="matrix(1 0 0 1 -2278 -260 )">
    <path d="M 0 20  L 0 5  C 0 2.19999999999999  4.58723404255281 0  10.4255319148936 0  L 24.7522306108435 0  L 87.5744680851064 0  C 93.4127659574472 0  98 2.19999999999999  98 5  L 98 20  C 98 22.8  93.4127659574472 25  87.5744680851064 25  L 25.5267569310127 25  L 10.4255319148936 25  C 4.58723404255281 25  0 22.8  0 20  Z " fill-rule="nonzero" fill="#ffffff" stroke="none" transform="matrix(1 0 0 1 2278 260 )" />
    <path d="M 0 20  L 0 5  C 0 2.19999999999999  4.58723404255281 0  10.4255319148936 0  L 24.7522306108435 0  L 87.5744680851064 0  C 93.4127659574472 0  98 2.19999999999999  98 5  L 98 20  C 98 22.8  93.4127659574472 25  87.5744680851064 25  L 25.5267569310127 25  L 10.4255319148936 25  C 4.58723404255281 25  0 22.8  0 20  Z " stroke-width="2" stroke="#797979" fill="none" transform="matrix(1 0 0 1 2278 260 )" mask="url(#clip177)" />
  </g>
</svg>