<?xml version="1.0" encoding="utf-8"?>
<svg version="1.1" xmlns:xlink="http://www.w3.org/1999/xlink" width="25px" height="25px" xmlns="http://www.w3.org/2000/svg">
  <g transform="matrix(1 0 0 1 -2499 -2230 )">
    <path d="M 8.93110795454546 9.521484375  C 9.03764204545454 9.619140625  9.09090909090909 9.74392361111111  9.09090909090909 9.89583333333333  L 9.09090909090909 19.2708333333333  C 9.09090909090909 19.4227430555556  9.03764204545454 19.5475260416667  8.93110795454546 19.6451822916667  C 8.82457386363636 19.7428385416667  8.68844696969697 19.7916666666667  8.52272727272727 19.7916666666667  L 7.38636363636364 19.7916666666667  C 7.22064393939394 19.7916666666667  7.08451704545455 19.7428385416667  6.97798295454545 19.6451822916667  C 6.87144886363636 19.5475260416667  6.81818181818182 19.4227430555556  6.81818181818182 19.2708333333333  L 6.81818181818182 9.89583333333333  C 6.81818181818182 9.74392361111111  6.87144886363636 9.619140625  6.97798295454545 9.521484375  C 7.08451704545455 9.423828125  7.22064393939394 9.375  7.38636363636364 9.375  L 8.52272727272727 9.375  C 8.68844696969697 9.375  8.82457386363636 9.423828125  8.93110795454546 9.521484375  Z M 13.4765625 9.521484375  C 13.5830965909091 9.619140625  13.6363636363636 9.74392361111111  13.6363636363636 9.89583333333333  L 13.6363636363636 19.2708333333333  C 13.6363636363636 19.4227430555556  13.5830965909091 19.5475260416667  13.4765625 19.6451822916667  C 13.3700284090909 19.7428385416667  13.2339015151515 19.7916666666667  13.0681818181818 19.7916666666667  L 11.9318181818182 19.7916666666667  C 11.7660984848485 19.7916666666667  11.6299715909091 19.7428385416667  11.5234375 19.6451822916667  C 11.4169034090909 19.5475260416667  11.3636363636364 19.4227430555556  11.3636363636364 19.2708333333333  L 11.3636363636364 9.89583333333333  C 11.3636363636364 9.74392361111111  11.4169034090909 9.619140625  11.5234375 9.521484375  C 11.6299715909091 9.423828125  11.7660984848485 9.375  11.9318181818182 9.375  L 13.0681818181818 9.375  C 13.2339015151515 9.375  13.3700284090909 9.423828125  13.4765625 9.521484375  Z M 18.0220170454545 9.521484375  C 18.1285511363636 9.619140625  18.1818181818182 9.74392361111111  18.1818181818182 9.89583333333333  L 18.1818181818182 19.2708333333333  C 18.1818181818182 19.4227430555556  18.1285511363636 19.5475260416667  18.0220170454545 19.6451822916667  C 17.9154829545455 19.7428385416667  17.7793560606061 19.7916666666667  17.6136363636364 19.7916666666667  L 16.4772727272727 19.7916666666667  C 16.311553030303 19.7916666666667  16.1754261363636 19.7428385416667  16.0688920454545 19.6451822916667  C 15.9623579545455 19.5475260416667  15.9090909090909 19.4227430555556  15.9090909090909 19.2708333333333  L 15.9090909090909 9.89583333333333  C 15.9090909090909 9.74392361111111  15.9623579545455 9.619140625  16.0688920454545 9.521484375  C 16.1754261363636 9.423828125  16.311553030303 9.375  16.4772727272727 9.375  L 17.6136363636364 9.375  C 17.7793560606061 9.375  17.9154829545455 9.423828125  18.0220170454545 9.521484375  Z M 20.3302556818182 22.3388671875  C 20.413115530303 22.1381293402778  20.4545454545455 21.9184027777778  20 21.6796875  L 20 6.25  L 5 6.25  L 5 21.6796875  C 4.54545454545455 21.9184027777778  4.58688446969697 22.1381293402778  4.66974431818182 22.3388671875  C 4.75260416666667 22.5396050347222  4.83842329545455 22.6860894097222  4.92720170454545 22.7783203125  C 5.01598011363636 22.8705512152778  5.078125 22.9166666666667  5.11363636363636 23  L 19.8863636363636 23  C 19.921875 22.9166666666667  19.9840198863636 22.8705512152778  20.0727982954545 22.7783203125  C 20.1615767045455 22.6860894097222  20.2473958333333 22.5396050347222  20.3302556818182 22.3388671875  Z M 9.39275568181818 2.26236979166667  L 8.52272727272727 4.16666666666667  L 16.4772727272727 4.16666666666667  L 15.625 2.26236979166667  C 15.5421401515152 2.16471354166667  15.4415246212121 2.10503472222222  15.3231534090909 2.08333333333333  L 9.69460227272727 2.08333333333333  C 9.57623106060606 2.10503472222222  9.47561553030303 2.16471354166667  9.39275568181818 2.26236979166667  Z M 24.8401988636364 4.31315104166667  C 24.9467329545455 4.41080729166667  25 4.53559027777778  25 4.6875  L 25 5.72916666666667  C 25 5.88107638888889  24.9467329545455 6.005859375  24.8401988636364 6.103515625  C 24.7336647727273 6.201171875  24.5975378787879 6.25  24.4318181818182 6.25  L 22.7272727272727 6.25  L 22.7272727272727 21.6796875  C 22.7272727272727 22.5802951388889  22.4491003787879 23.3588324652778  21.8927556818182 24.0152994791667  C 21.3364109848485 24.6717664930556  20.6676136363636 25  19.8863636363636 25  L 5.11363636363636 25  C 4.33238636363636 25  3.66358901515152 24.6826171875  3.10724431818182 24.0478515625  C 2.55089962121212 23.4130859375  2.27272727272727 22.6453993055556  2.27272727272727 21.7447916666667  L 2.27272727272727 6.25  L 0.568181818181818 6.25  C 0.402462121212121 6.25  0.266335227272727 6.201171875  0.159801136363636 6.103515625  C 0.0532670454545454 6.005859375  0 5.88107638888889  0 5.72916666666667  L 0 4.6875  C 0 4.53559027777778  0.0532670454545454 4.41080729166667  0.159801136363636 4.31315104166667  C 0.266335227272727 4.21549479166667  0.402462121212121 4.16666666666667  0.568181818181818 4.16666666666667  L 6.0546875 4.16666666666667  L 7.29758522727273 1.44856770833333  C 7.47514204545455 1.04709201388889  7.79474431818182 0.705295138888887  8.25639204545454 0.423177083333334  C 8.71803977272727 0.141059027777776  9.18560606060606 0  9.65909090909091 0  L 15.3409090909091 0  C 15.8143939393939 0  16.2819602272727 0.141059027777776  16.7436079545455 0.423177083333334  C 17.2052556818182 0.705295138888887  17.5248579545455 1.04709201388889  17.7024147727273 1.44856770833333  L 18.9453125 4.16666666666667  L 24.4318181818182 4.16666666666667  C 24.5975378787879 4.16666666666667  24.7336647727273 4.21549479166667  24.8401988636364 4.31315104166667  Z " fill-rule="nonzero" fill="#000000" stroke="none" transform="matrix(1 0 0 1 2499 2230 )" />
  </g>
</svg>