<?xml version="1.0" encoding="utf-8"?>
<svg version="1.1" xmlns:xlink="http://www.w3.org/1999/xlink" width="109px" height="106px" xmlns="http://www.w3.org/2000/svg">
  <g transform="matrix(1 0 0 1 -2419 -2227 )">
    <path d="M 2419 2227  L 2528 2227  L 2528 2333  L 2419 2333  L 2419 2227  " fill-rule="nonzero" fill="#cccccc" stroke="none" />
    <path d="M 2426 2234  L 2521 2234  L 2521 2326  L 2426 2326  L 2426 2234  " fill-rule="nonzero" fill="#ffffff" stroke="none" />
    <path d="M 2483.63 2258.8  C 2479.178 2258.8  2475.68 2255.302  2475.68 2250.85  C 2475.68 2246.398  2479.178 2242.9  2483.63 2242.9  C 2488.082 2242.9  2491.58 2246.398  2491.58 2250.85  C 2491.58 2255.302  2488.082 2258.8  2483.63 2258.8  " fill-rule="nonzero" fill="#cccccc" stroke="none" />
    <path d="M 2429 2324  L 2429 2276.15  L 2451.5 2254.4  L 2483 2273.23669724771  L 2501 2267.45  L 2519 2273.23669724771  L 2519 2324  L 2429 2324  " fill-rule="nonzero" fill="#169bd5" stroke="none" />
  </g>
</svg>