<?xml version="1.0" encoding="utf-8"?>
<svg version="1.1" xmlns:xlink="http://www.w3.org/1999/xlink" width="74px" height="73px" xmlns="http://www.w3.org/2000/svg">
  <g transform="matrix(1 0 0 1 -226 -556 )">
    <path d="M 263 557  C 283.16 557  299 572.62  299 592.5  C 299 612.38  283.16 628  263 628  C 242.84 628  227 612.38  227 592.5  C 227 572.62  242.84 557  263 557  Z " fill-rule="nonzero" fill="#ffffff" stroke="none" />
    <path d="M 263 557  C 283.16 557  299 572.62  299 592.5  C 299 612.38  283.16 628  263 628  C 242.84 628  227 612.38  227 592.5  C 227 572.62  242.84 557  263 557  Z " stroke-width="2" stroke="#52c41a" fill="none" />
  </g>
</svg>