<?xml version="1.0" encoding="utf-8"?>
<svg version="1.1" xmlns:xlink="http://www.w3.org/1999/xlink" width="120px" height="120px" xmlns="http://www.w3.org/2000/svg">
  <g transform="matrix(1 0 0 1 -679 -170 )">
    <path d="M 739 174.5  C 770.08 174.5  794.5 198.92  794.5 230  C 794.5 261.08  770.08 285.5  739 285.5  C 707.92 285.5  683.5 261.08  683.5 230  C 683.5 198.92  707.92 174.5  739 174.5  Z " fill-rule="nonzero" fill="#ffffff" stroke="none" />
    <path d="M 739 172.5  C 771.2 172.5  796.5 197.8  796.5 230  C 796.5 262.2  771.2 287.5  739 287.5  C 706.8 287.5  681.5 262.2  681.5 230  C 681.5 197.8  706.8 172.5  739 172.5  Z " stroke-width="5" stroke="#000000" fill="none" stroke-opacity="0.0392156862745098" />
  </g>
</svg>