<?xml version="1.0" encoding="utf-8"?>
<svg version="1.1" xmlns:xlink="http://www.w3.org/1999/xlink" width="26px" height="27px" xmlns="http://www.w3.org/2000/svg">
  <g transform="matrix(1 0 0 1 -3044 -102 )">
    <path d="M 25.3872053872054 20.1818181818182  C 25.7957351290685 20.6060606060606  26 21.1212121212121  26 21.7272727272727  C 26 22.3333333333333  25.7957351290685 22.8484848484848  25.3872053872054 23.2727272727273  L 22.4107744107744 26.3636363636364  C 22.0022446689113 26.7878787878788  21.5061728395062 27  20.9225589225589 27  C 20.3389450056117 27  19.8428731762065 26.7878787878788  19.4343434343434 26.3636363636364  L 13 19.6818181818182  L 6.56565656565657 26.3636363636364  C 6.15712682379349 26.7878787878788  5.66105499438833 27  5.07744107744108 27  C 4.49382716049383 27  3.99775533108867 26.7878787878788  3.58922558922559 26.3636363636364  L 0.612794612794613 23.2727272727273  C 0.204264870931538 22.8484848484848  0 22.3333333333333  0 21.7272727272727  C 0 21.1212121212121  0.204264870931538 20.6060606060606  0.612794612794613 20.1818181818182  L 7.04713804713805 13.5  L 0.612794612794613 6.81818181818182  C 0.204264870931538 6.39393939393939  0 5.87878787878788  0 5.27272727272727  C 0 4.66666666666667  0.204264870931538 4.15151515151515  0.612794612794613 3.72727272727273  L 3.58922558922559 0.636363636363636  C 3.99775533108867 0.212121212121211  4.49382716049383 0  5.07744107744108 0  C 5.66105499438833 0  6.15712682379349 0.212121212121211  6.56565656565657 0.636363636363636  L 13 7.31818181818182  L 19.4343434343434 0.636363636363636  C 19.8428731762065 0.212121212121211  20.3389450056117 0  20.9225589225589 0  C 21.5061728395062 0  22.0022446689113 0.212121212121211  22.4107744107744 0.636363636363636  L 25.3872053872054 3.72727272727273  C 25.7957351290685 4.15151515151515  26 4.66666666666667  26 5.27272727272727  C 26 5.87878787878788  25.7957351290685 6.39393939393939  25.3872053872054 6.81818181818182  L 18.952861952862 13.5  L 25.3872053872054 20.1818181818182  Z " fill-rule="nonzero" fill="#000000" stroke="none" transform="matrix(1 0 0 1 3044 102 )" />
  </g>
</svg>