<?xml version="1.0" encoding="utf-8"?>
<svg version="1.1" xmlns:xlink="http://www.w3.org/1999/xlink" width="45px" height="48px" xmlns="http://www.w3.org/2000/svg">
  <g transform="matrix(1 0 0 1 -2860 -574 )">
    <path d="M 32.6953125 42.1323251417769  L 30.7481971153846 29.3988657844991  L 39.0234375 20.4158790170132  L 27.6111778846154 18.5406427221172  L 22.5 6.9867674858223  L 17.3888221153846 18.5406427221172  L 5.9765625 20.4158790170132  L 14.2518028846154 29.3988657844991  L 12.2776442307692 42.1323251417769  L 22.5 36.1134215500945  L 32.6953125 42.1323251417769  Z M 43.4855769230769 17.2098298676749  C 44.4951923076923 17.3913043478261  45 17.8550724637681  45 18.6011342155009  C 45 19.0447385003151  44.765625 19.528670447385  44.296875 20.0529300567108  L 34.4801682692308 30.7599243856333  L 36.8058894230769 45.882797731569  C 36.8239182692308 46.0239445494644  36.8329326923077 46.2255828607435  36.8329326923077 46.4877126654064  C 36.8329326923077 47.4959042218021  36.4633413461539 48  35.7241586538462 48  C 35.3816105769231 48  35.0210336538462 47.8790170132325  34.6424278846154 47.6370510396975  L 22.5 40.4990548204159  L 10.3575721153846 47.6370510396975  C 9.9609375 47.8790170132325  9.60036057692308 48  9.27584134615384 48  C 8.89723557692308 48  8.61328125 47.8538122243226  8.42397836538461 47.5614366729679  C 8.23467548076923 47.2690611216131  8.14002403846154 46.9111531190926  8.14002403846154 46.4877126654064  C 8.14002403846154 46.3667296786389  8.15805288461539 46.1650913673598  8.19411057692308 45.882797731569  L 10.5198317307692 30.7599243856333  L 0.676081730769231 20.0529300567108  C 0.225360576923077 19.5085066162571  0 19.0245746691871  0 18.6011342155009  C 0 17.8550724637681  0.504807692307692 17.3913043478261  1.51442307692308 17.2098298676749  L 15.0901442307692 15.0018903591682  L 21.1748798076923 1.24007561436673  C 21.5174278846154 0.413358538122241  21.9591346153846 0  22.5 0  C 23.0408653846154 0  23.4825721153846 0.413358538122241  23.8251201923077 1.24007561436673  L 29.9098557692308 15.0018903591682  L 43.4855769230769 17.2098298676749  Z " fill-rule="nonzero" fill="#000000" stroke="none" transform="matrix(1 0 0 1 2860 574 )" />
  </g>
</svg>